<?xml version="1.0" standalone="no"?>
<!DOCTYPE svg PUBLIC "-//W3C//DTD SVG 20010904//EN"
 "http://www.w3.org/TR/2001/REC-SVG-20010904/DTD/svg10.dtd">
<svg version="1.0" xmlns="http://www.w3.org/2000/svg"
 width="225.000000pt" height="224.000000pt" viewBox="0 0 225.000000 224.000000"
 preserveAspectRatio="xMidYMid meet">

<g transform="translate(0.000000,224.000000) scale(0.100000,-0.100000)"
fill="#000000" stroke="none">
<path d="M995 2169 c-529 -71 -915 -511 -915 -1043 1 -574 464 -1035 1041
-1036 501 0 911 325 1031 817 16 69 21 116 20 219 -3 289 -94 519 -284 719
-156 165 -335 265 -549 310 -89 19 -258 26 -344 14z m-229 -205 c68 -32 97
-116 70 -205 -55 -188 -312 -318 -447 -226 -98 67 -88 212 25 329 106 111 247
152 352 102z m709 -502 c81 -39 129 -117 129 -207 0 -197 -228 -300 -381 -171
-74 62 -97 185 -51 274 56 110 195 158 303 104z m-413 -401 c72 -131 251 -201
402 -157 74 22 122 52 173 110 l40 45 99 -25 c114 -29 322 -98 337 -113 25
-25 -51 -216 -134 -340 -144 -216 -364 -370 -616 -433 -124 -31 -350 -32 -473
-1 -185 47 -340 132 -474 262 -93 90 -151 169 -205 277 -33 67 -81 199 -81
224 0 8 118 51 271 98 165 52 434 98 579 101 l55 1 27 -49z"/>
<path d="M1302 1413 c-43 -21 -79 -64 -93 -112 -36 -122 77 -241 206 -217 43
8 103 59 121 103 61 145 -94 295 -234 226z m148 -15 c137 -69 109 -265 -43
-303 -102 -26 -213 84 -192 192 3 18 20 50 38 70 57 65 122 79 197 41z"/>
</g>
</svg>
